<svg xmlns="http://www.w3.org/2000/svg" width="180" height="180" viewBox="0 0 24 24" fill="none" stroke="currentColor" stroke-width="1" stroke-linecap="round" stroke-linejoin="round">
  <path d="M3 7V5c0-1.1.9-2 2-2h2"></path>
  <path d="M17 3h2c1.1 0 2 .9 2 2v2"></path>
  <path d="M21 17v2c0 1.1-.9 2-2 2h-2"></path>
  <path d="M7 21H5c-1.1 0-2-.9-2-2v-2"></path>
  <rect x="7" y="7" width="10" height="10" rx="1"></rect>
  <path d="m18 2-3 3"></path>
  <path d="m2 18 3 3"></path>
  <path d="m22 2-3 3"></path>
  <path d="m6 22 3-3"></path>
  <circle cx="12" cy="12" r="4"></circle>
  <path d="m12 12 1.5-1.5"></path>
</svg>
